<svg xmlns="http://www.w3.org/2000/svg" viewBox="0 0 100 100">
  <circle cx="50" cy="50" r="48" fill="#FFECB3"/>
  <circle cx="50" cy="45" r="30" fill="#FFCCBC"/>
  <ellipse cx="35" cy="42" rx="5" ry="6" fill="#4A4A4A"/>
  <ellipse cx="65" cy="42" rx="5" ry="6" fill="#4A4A4A"/>
  <ellipse cx="36" cy="40" rx="2" ry="2" fill="#FFFFFF"/>
  <ellipse cx="66" cy="40" rx="2" ry="2" fill="#FFFFFF"/>
  <path d="M40 58 Q50 68 60 58" stroke="#E57373" stroke-width="3" fill="none" stroke-linecap="round"/>
  <ellipse cx="25" cy="52" rx="8" ry="5" fill="#FFAB91" opacity="0.5"/>
  <ellipse cx="75" cy="52" rx="8" ry="5" fill="#FFAB91" opacity="0.5"/>
  <path d="M20 25 Q25 5 40 18 L50 8 L60 18 Q75 5 80 25 L75 30 Q68 15 58 22 L50 15 L42 22 Q32 15 25 30 Z" fill="#6D4C41"/>
  <circle cx="50" cy="85" r="25" fill="#26A69A"/>
</svg>
