<svg xmlns="http://www.w3.org/2000/svg" viewBox="0 0 100 100">
  <circle cx="50" cy="50" r="48" fill="#BBDEFB"/>
  <circle cx="50" cy="45" r="30" fill="#FFCCBC"/>
  <ellipse cx="35" cy="42" rx="5" ry="6" fill="#4A4A4A"/>
  <ellipse cx="65" cy="42" rx="5" ry="6" fill="#4A4A4A"/>
  <ellipse cx="36" cy="40" rx="2" ry="2" fill="#FFFFFF"/>
  <ellipse cx="66" cy="40" rx="2" ry="2" fill="#FFFFFF"/>
  <path d="M40 58 Q50 66 60 58" stroke="#E57373" stroke-width="3" fill="none" stroke-linecap="round"/>
  <ellipse cx="25" cy="52" rx="8" ry="5" fill="#FFAB91" opacity="0.5"/>
  <ellipse cx="75" cy="52" rx="8" ry="5" fill="#FFAB91" opacity="0.5"/>
  <rect x="22" y="18" width="56" height="15" rx="3" fill="#1565C0"/>
  <path d="M25 33 Q30 25 35 33 Q40 25 45 33 Q50 25 55 33 Q60 25 65 33 Q70 25 75 33" stroke="#1565C0" stroke-width="4" fill="none"/>
  <circle cx="50" cy="85" r="25" fill="#1E88E5"/>
</svg>
