<svg xmlns="http://www.w3.org/2000/svg" viewBox="0 0 100 100">
  <circle cx="50" cy="50" r="48" fill="#F8BBD9"/>
  <circle cx="50" cy="45" r="30" fill="#FFE0B2"/>
  <ellipse cx="35" cy="42" rx="5" ry="6" fill="#4A4A4A"/>
  <ellipse cx="65" cy="42" rx="5" ry="6" fill="#4A4A4A"/>
  <ellipse cx="36" cy="40" rx="2" ry="2" fill="#FFFFFF"/>
  <ellipse cx="66" cy="40" rx="2" ry="2" fill="#FFFFFF"/>
  <path d="M40 58 Q50 68 60 58" stroke="#E57373" stroke-width="3" fill="none" stroke-linecap="round"/>
  <ellipse cx="25" cy="52" rx="8" ry="5" fill="#FFAB91" opacity="0.5"/>
  <ellipse cx="75" cy="52" rx="8" ry="5" fill="#FFAB91" opacity="0.5"/>
  <path d="M15 35 Q20 10 50 20 Q80 10 85 35 L82 50 Q75 25 50 30 Q25 25 18 50 Z" fill="#FFC107"/>
  <path d="M25 30 Q30 25 35 30" stroke="#FFC107" stroke-width="4" fill="none"/>
  <path d="M65 30 Q70 25 75 30" stroke="#FFC107" stroke-width="4" fill="none"/>
  <circle cx="50" cy="85" r="25" fill="#EC407A"/>
</svg>
