<svg xmlns="http://www.w3.org/2000/svg" viewBox="0 0 100 100">
  <circle cx="50" cy="50" r="48" fill="#C5E1A5"/>
  <circle cx="50" cy="45" r="30" fill="#FFCCBC"/>
  <ellipse cx="35" cy="42" rx="5" ry="6" fill="#4A4A4A"/>
  <ellipse cx="65" cy="42" rx="5" ry="6" fill="#4A4A4A"/>
  <ellipse cx="36" cy="40" rx="2" ry="2" fill="#FFFFFF"/>
  <ellipse cx="66" cy="40" rx="2" ry="2" fill="#FFFFFF"/>
  <path d="M42 58 Q50 63 58 58" stroke="#E57373" stroke-width="3" fill="none" stroke-linecap="round"/>
  <ellipse cx="25" cy="52" rx="8" ry="5" fill="#FFAB91" opacity="0.5"/>
  <ellipse cx="75" cy="52" rx="8" ry="5" fill="#FFAB91" opacity="0.5"/>
  <path d="M20 28 Q35 8 50 22 Q65 8 80 28 L78 32 Q65 15 50 28 Q35 15 22 32 Z" fill="#424242"/>
  <rect x="28" y="32" width="44" height="8" rx="2" fill="#424242"/>
  <circle cx="50" cy="85" r="25" fill="#7E57C2"/>
</svg>
